<svg width="13" height="14" viewBox="0 0 13 14" fill="none" xmlns="http://www.w3.org/2000/svg">
<path d="M9.20801 2.30927C10.025 2.78098 10.7046 3.45789 11.1796 4.27298C11.6545 5.08806 11.9084 6.01306 11.916 6.95641C11.9237 7.89976 11.6848 8.82875 11.223 9.6514C10.7613 10.4741 10.0927 11.1618 9.28343 11.6467C8.47418 12.1315 7.55233 12.3966 6.60914 12.4157C5.66596 12.4348 4.73414 12.2072 3.90593 11.7555C3.07773 11.3038 2.38185 10.6436 1.8872 9.84034C1.39255 9.03705 1.11627 8.11849 1.08572 7.1756L1.08301 7.0001L1.08572 6.8246C1.11605 5.88914 1.38826 4.9775 1.87581 4.17856C2.36336 3.37962 3.04961 2.72064 3.86766 2.26587C4.6857 1.81111 5.60763 1.57607 6.54355 1.58367C7.47948 1.59128 8.39746 1.84127 9.20801 2.30927ZM6.50509 8.6251L6.4363 8.6289C6.30465 8.64456 6.18331 8.70796 6.09527 8.80709C6.00724 8.90622 5.95861 9.03419 5.95861 9.16677C5.95861 9.29935 6.00724 9.42733 6.09527 9.52646C6.18331 9.62559 6.30465 9.68899 6.4363 9.70465L6.49967 9.70844L6.56847 9.70465C6.70012 9.68899 6.82146 9.62559 6.90949 9.52646C6.99753 9.42733 7.04615 9.29935 7.04615 9.16677C7.04615 9.03419 6.99753 8.90622 6.90949 8.80709C6.82146 8.70796 6.70012 8.64456 6.56847 8.6289L6.50509 8.6251ZM6.49967 4.29177C6.367 4.29179 6.23895 4.3405 6.13981 4.42866C6.04066 4.51682 5.97732 4.6383 5.9618 4.77006L5.95801 4.83344V7.0001L5.9618 7.06348C5.97746 7.19513 6.04086 7.31647 6.13999 7.40451C6.23912 7.49254 6.36709 7.54117 6.49967 7.54117C6.63225 7.54117 6.76023 7.49254 6.85936 7.40451C6.95849 7.31647 7.02189 7.19513 7.03755 7.06348L7.04134 7.0001V4.83344L7.03755 4.77006C7.02203 4.6383 6.95869 4.51682 6.85954 4.42866C6.7604 4.3405 6.63235 4.29179 6.49967 4.29177Z" fill="#EB003B"/>
</svg>
