<svg width="53" height="53" viewBox="0 0 53 53" fill="none" xmlns="http://www.w3.org/2000/svg">
<path d="M11.0417 15.4583H13.25C14.4214 15.4583 15.5448 14.9929 16.3731 14.1646C17.2013 13.3364 17.6667 12.213 17.6667 11.0416C17.6667 10.4559 17.8993 9.8942 18.3135 9.48006C18.7276 9.06592 19.2893 8.83325 19.875 8.83325H33.125C33.7107 8.83325 34.2724 9.06592 34.6865 9.48006C35.1007 9.8942 35.3333 10.4559 35.3333 11.0416C35.3333 12.213 35.7987 13.3364 36.6269 14.1646C37.4552 14.9929 38.5786 15.4583 39.75 15.4583H41.9583C43.1297 15.4583 44.2531 15.9236 45.0814 16.7519C45.9097 17.5801 46.375 18.7035 46.375 19.8749V39.7499C46.375 40.9213 45.9097 42.0447 45.0814 42.873C44.2531 43.7013 43.1297 44.1666 41.9583 44.1666H11.0417C9.87029 44.1666 8.7469 43.7013 7.91861 42.873C7.09033 42.0447 6.625 40.9213 6.625 39.7499V19.8749C6.625 18.7035 7.09033 17.5801 7.91861 16.7519C8.7469 15.9236 9.87029 15.4583 11.0417 15.4583Z" stroke="#C5C5C5" stroke-width="4.41667" stroke-linecap="round" stroke-linejoin="round"/>
<path d="M19.875 28.7083C19.875 30.4653 20.573 32.1504 21.8154 33.3928C23.0578 34.6353 24.7429 35.3333 26.5 35.3333C28.2571 35.3333 29.9422 34.6353 31.1846 33.3928C32.427 32.1504 33.125 30.4653 33.125 28.7083C33.125 26.9512 32.427 25.2661 31.1846 24.0237C29.9422 22.7812 28.2571 22.0833 26.5 22.0833C24.7429 22.0833 23.0578 22.7812 21.8154 24.0237C20.573 25.2661 19.875 26.9512 19.875 28.7083Z" stroke="#C5C5C5" stroke-width="4.41667" stroke-linecap="round" stroke-linejoin="round"/>
</svg>
