<svg width="38" height="38" viewBox="0 0 38 38" fill="none" xmlns="http://www.w3.org/2000/svg">
<path d="M30.0833 10.2911H28.0566L27.55 8.70772C27.2215 7.77867 26.6122 6.97476 25.8066 6.40739C25.0009 5.84001 24.0387 5.53725 23.0533 5.54105H14.9466C13.9516 5.54291 12.9822 5.85722 12.1754 6.4396C11.3686 7.02199 10.7651 7.84304 10.45 8.78688L9.94329 10.3702H7.91663C6.65685 10.3702 5.44867 10.8707 4.55787 11.7615C3.66707 12.6523 3.16663 13.8604 3.16663 15.1202V27.7869C3.16663 29.0467 3.66707 30.2548 4.55787 31.1456C5.44867 32.0364 6.65685 32.5369 7.91663 32.5369H30.0833C31.3431 32.5369 32.5513 32.0364 33.4421 31.1456C34.3328 30.2548 34.8333 29.0467 34.8333 27.7869V15.1202C34.8438 14.4898 34.7287 13.8636 34.4947 13.2782C34.2607 12.6927 33.9125 12.1597 33.4704 11.7102C33.0282 11.2607 32.501 10.9037 31.9195 10.66C31.338 10.4164 30.7138 10.291 30.0833 10.2911ZM31.6666 27.7077C31.6666 28.1276 31.4998 28.5304 31.2029 28.8273C30.9059 29.1242 30.5032 29.291 30.0833 29.291H7.91663C7.4967 29.291 7.09397 29.1242 6.79704 28.8273C6.50011 28.5304 6.33329 28.1276 6.33329 27.7077V15.0411C6.33329 14.6211 6.50011 14.2184 6.79704 13.9215C7.09397 13.6245 7.4967 13.4577 7.91663 13.4577H11.0833C11.4286 13.4757 11.7702 13.3803 12.0561 13.1858C12.342 12.9914 12.5565 12.7088 12.6666 12.3811L13.5216 9.78438C13.6278 9.4699 13.8302 9.19675 14.1001 9.00355C14.37 8.81035 14.6939 8.70686 15.0258 8.70772H23.1325C23.4644 8.70686 23.7882 8.81035 24.0581 9.00355C24.328 9.19675 24.5304 9.4699 24.6366 9.78438L25.4916 12.3811C25.5932 12.6831 25.7836 12.9474 26.0378 13.1395C26.2921 13.3316 26.5983 13.4425 26.9166 13.4577H30.0833C30.5032 13.4577 30.9059 13.6245 31.2029 13.9215C31.4998 14.2184 31.6666 14.6211 31.6666 15.0411V27.7077ZM19 13.4577C17.7473 13.4577 16.5229 13.8292 15.4813 14.5251C14.4398 15.221 13.6281 16.2101 13.1487 17.3674C12.6694 18.5247 12.5439 19.7981 12.7883 21.0266C13.0327 22.2552 13.6359 23.3837 14.5216 24.2694C15.4073 25.1551 16.5358 25.7583 17.7644 26.0027C18.9929 26.2471 20.2664 26.1216 21.4236 25.6423C22.5809 25.1629 23.57 24.3512 24.2659 23.3097C24.9618 22.2681 25.3333 21.0437 25.3333 19.791C25.3333 18.1113 24.666 16.5004 23.4783 15.3127C22.2906 14.125 20.6797 13.4577 19 13.4577ZM19 22.9577C18.3737 22.9577 17.7614 22.772 17.2407 22.424C16.7199 22.0761 16.314 21.5815 16.0743 21.0029C15.8347 20.4242 15.772 19.7875 15.8941 19.1733C16.0163 18.559 16.3179 17.9947 16.7608 17.5519C17.2037 17.109 17.7679 16.8074 18.3822 16.6852C18.9964 16.563 19.6332 16.6258 20.2118 16.8654C20.7904 17.1051 21.285 17.511 21.6329 18.0317C21.9809 18.5525 22.1666 19.1647 22.1666 19.791C22.1666 20.6309 21.833 21.4364 21.2391 22.0302C20.6453 22.6241 19.8398 22.9577 19 22.9577Z" fill="#9E9FAD"/>
</svg>
