<svg width="18" height="18" viewBox="0 0 18 18" fill="none" xmlns="http://www.w3.org/2000/svg">
<g clip-path="url(#clip0_810_26254)">
<path d="M6.75 11.125C6.75 12.5749 9.10025 13.75 12 13.75C14.8997 13.75 17.25 12.5749 17.25 11.125M6.75 11.125C6.75 9.67513 9.10025 8.5 12 8.5C14.8997 8.5 17.25 9.67513 17.25 11.125M6.75 11.125V14.625C6.75 16.074 9.10025 17.25 12 17.25C14.8997 17.25 17.25 16.074 17.25 14.625V11.125M1.5 4.125C1.5 5.063 2.501 5.92925 4.125 6.39825C5.749 6.86725 7.751 6.86725 9.375 6.39825C10.999 5.92925 12 5.063 12 4.125C12 3.187 10.999 2.32075 9.375 1.85175C7.751 1.38275 5.749 1.38275 4.125 1.85175C2.501 2.32075 1.5 3.187 1.5 4.125ZM1.5 4.125V12.875C1.5 13.652 2.1755 14.1437 3.25 14.625M1.5 8.5C1.5 9.277 2.1755 9.76875 3.25 10.25" stroke="#28282E" stroke-width="1.5" stroke-linecap="round" stroke-linejoin="round"/>
</g>
<defs>
<clipPath id="clip0_810_26254">
<rect width="18" height="18" fill="white"/>
</clipPath>
</defs>
</svg>
