<svg width="24" height="24" viewBox="0 0 24 24" fill="none" xmlns="http://www.w3.org/2000/svg">
<path d="M14 9.74961C13.7862 9.56149 13.5468 9.40459 13.289 9.28361M9.87899 9.87961C9.32291 10.4339 9.00688 11.1844 8.99902 11.9695C8.99116 12.7546 9.29211 13.5113 9.83699 14.0766C10.3754 14.6355 11.1085 14.9653 11.8838 14.9975C12.6592 15.0298 13.4171 14.7619 14 14.2496M20.042 16.0446C20.894 14.3535 21.1909 12.4367 20.8905 10.5671C20.59 8.69741 19.7075 6.97017 18.3685 5.63117C17.0295 4.29216 15.3022 3.40962 13.4326 3.10915C11.5629 2.80868 9.64614 3.10558 7.95501 3.95761M5.63701 5.63461C4.78995 6.46766 4.11621 7.46018 3.65465 8.55492C3.19309 9.64966 2.95284 10.825 2.94777 12.013C2.94271 13.2011 3.17291 14.3784 3.62511 15.477C4.07731 16.5756 4.74256 17.5739 5.58248 18.4141C6.4224 19.2544 7.42038 19.92 8.51884 20.3726C9.6173 20.8253 10.7945 21.0559 11.9826 21.0513C13.1706 21.0467 14.346 20.807 15.4409 20.3458C16.5358 19.8847 17.5286 19.2113 18.362 18.3646M3 2.99961L21 20.9996" stroke="#9E9FAD" stroke-width="2" stroke-linecap="round" stroke-linejoin="round"/>
</svg>
