<svg width="111" height="110" viewBox="0 0 111 110" fill="none" xmlns="http://www.w3.org/2000/svg">
<g clip-path="url(#clip0_786_970)">
<path d="M55.5 110C85.8757 110 110.5 85.3757 110.5 55C110.5 24.6243 85.8757 0 55.5 0C25.1243 0 0.5 24.6243 0.5 55C0.5 85.3757 25.1243 110 55.5 110Z" fill="#FF5100"/>
<path d="M78.0874 38.7519C77.1787 37.8519 75.7055 37.8519 74.7966 38.7519L46.9187 66.3603L36.2028 55.7482C35.2941 54.8482 33.8209 54.8483 32.912 55.7482C32.0033 56.648 32.0033 58.107 32.912 59.007L45.2733 71.2484C46.1817 72.1483 47.656 72.1476 48.564 71.2484L78.0874 42.0108C78.9962 41.1109 78.9961 39.6519 78.0874 38.7519Z" fill="white" stroke="white" stroke-width="4.88889"/>
</g>
<defs>
<clipPath id="clip0_786_970">
<rect width="110" height="110" fill="white" transform="translate(0.5)"/>
</clipPath>
</defs>
</svg>
