<svg width="25" height="24" viewBox="0 0 25 24" fill="none" xmlns="http://www.w3.org/2000/svg">
<path d="M21.8235 1H18.8835C18.0135 1 17.3735 1.36 17.0835 2C16.9235 2.29 16.8535 2.63 16.8535 3.03V5.97C16.8535 7.24 17.6135 8 18.8835 8H21.8235C22.2235 8 22.5635 7.93 22.8535 7.77C23.4935 7.48 23.8535 6.84 23.8535 5.97V3.03C23.8535 1.76 23.0935 1 21.8235 1ZM22.7635 4.93C22.6635 5.03 22.5135 5.1 22.3535 5.11H20.9435V5.62L20.9535 6.5C20.9435 6.67 20.8835 6.81 20.7635 6.93C20.6635 7.03 20.5135 7.1 20.3535 7.1C20.0235 7.1 19.7535 6.83 19.7535 6.5V5.1L18.3535 5.11C18.0235 5.11 17.7535 4.83 17.7535 4.5C17.7535 4.17 18.0235 3.9 18.3535 3.9L19.2335 3.91H19.7535V2.51C19.7535 2.18 20.0235 1.9 20.3535 1.9C20.6835 1.9 20.9535 2.18 20.9535 2.51L20.9435 3.22V3.9H22.3535C22.6835 3.9 22.9535 4.17 22.9535 4.5C22.9435 4.67 22.8735 4.81 22.7635 4.93Z" fill="#464646"/>
<path d="M9.85266 10.38C11.1671 10.38 12.2327 9.31443 12.2327 8C12.2327 6.68556 11.1671 5.62 9.85266 5.62C8.53822 5.62 7.47266 6.68556 7.47266 8C7.47266 9.31443 8.53822 10.38 9.85266 10.38Z" fill="#464646"/>
<path d="M21.8235 8H21.3535V12.61L21.2235 12.5C20.4435 11.83 19.1835 11.83 18.4035 12.5L14.2435 16.07C13.4635 16.74 12.2035 16.74 11.4235 16.07L11.0835 15.79C10.3735 15.17 9.24352 15.11 8.44352 15.65L4.70352 18.16C4.48352 17.6 4.35352 16.95 4.35352 16.19V7.81C4.35352 4.99 5.84352 3.5 8.66352 3.5H16.8535V3.03C16.8535 2.63 16.9235 2.29 17.0835 2H8.66352C5.02352 2 2.85352 4.17 2.85352 7.81V16.19C2.85352 17.28 3.04352 18.23 3.41352 19.03C4.27352 20.93 6.11352 22 8.66352 22H17.0435C20.6835 22 22.8535 19.83 22.8535 16.19V7.77C22.5635 7.93 22.2235 8 21.8235 8Z" fill="#464646"/>
</svg>
