<svg width="24" height="24" viewBox="0 0 24 24" fill="none" xmlns="http://www.w3.org/2000/svg">
<path fill-rule="evenodd" clip-rule="evenodd" d="M3.01179 8.11291C3.5017 7.85794 4.10554 8.04838 4.36052 8.53828C4.72296 9.23466 5.16577 9.87457 5.67505 10.4446C5.6828 10.4524 5.69045 10.4603 5.69801 10.4683C5.71433 10.4857 5.72992 10.5035 5.74476 10.5218C6.48661 11.3333 7.36494 11.9988 8.33827 12.4782C8.38071 12.4939 8.42258 12.5127 8.46361 12.5346C8.47783 12.5422 8.49178 12.5501 8.50548 12.5583C9.57814 13.0576 10.7609 13.3332 12 13.3332C13.2391 13.3332 14.4218 13.0576 15.4945 12.5583C15.5082 12.5501 15.5222 12.5422 15.5364 12.5346C15.5775 12.5126 15.6194 12.4938 15.6619 12.4781C16.634 11.9993 17.5114 11.3349 18.2528 10.5248C18.2683 10.5055 18.2848 10.4867 18.302 10.4683C18.3105 10.4592 18.3191 10.4504 18.3279 10.4417C18.8361 9.87243 19.2781 9.2336 19.64 8.53852C19.8951 8.04865 20.4989 7.85831 20.9888 8.11336C21.4787 8.36842 21.669 8.9723 21.414 9.46216C21.1197 10.0273 20.7803 10.5638 20.4005 11.0661L21.6843 12.2706C22.087 12.6485 22.1072 13.2813 21.7292 13.6841C21.3513 14.0868 20.7185 14.107 20.3158 13.7291L19.0564 12.5475C18.5338 13.0281 17.966 13.4569 17.3603 13.8254L18.0925 15.1952C18.3528 15.6822 18.169 16.2881 17.682 16.5485C17.1949 16.8088 16.589 16.6251 16.3286 16.138L15.5587 14.6976C14.7471 14.9978 13.8899 15.1984 13 15.2849L13 17C13 17.5522 12.5523 18 12 18C11.4477 18 11 17.5523 11 17L11 15.2849C10.1101 15.1984 9.25292 14.9978 8.44134 14.6976L7.67141 16.138C7.41106 16.6251 6.80515 16.8089 6.31808 16.5485C5.83101 16.2882 5.64722 15.6823 5.90757 15.1952L6.63979 13.8253C6.03406 13.4568 5.46627 13.0281 4.9437 12.5474L3.68425 13.7291C3.2815 14.107 2.64866 14.0868 2.27076 13.6841C1.89286 13.2813 1.913 12.6485 2.31575 12.2706L3.59971 11.0659C3.22002 10.5635 2.88061 10.0269 2.58642 9.46164C2.33145 8.97174 2.52189 8.36789 3.01179 8.11291Z" fill="#28282E"/>
</svg>
