<svg width="25" height="24" viewBox="0 0 25 24" fill="none" xmlns="http://www.w3.org/2000/svg">
<path d="M13.7239 2.75137C13.2553 2.28275 12.4955 2.28275 12.0269 2.75137L3.62686 11.1514C3.15823 11.62 3.15823 12.3798 3.62686 12.8484C4.09549 13.3171 4.85529 13.3171 5.32392 12.8484L5.67539 12.497V20.3999C5.67539 21.0626 6.21265 21.5999 6.87539 21.5999H9.27539C9.93813 21.5999 10.4754 21.0626 10.4754 20.3999V17.9999C10.4754 17.3372 11.0126 16.7999 11.6754 16.7999H14.0754C14.7381 16.7999 15.2754 17.3372 15.2754 17.9999V20.3999C15.2754 21.0626 15.8126 21.5999 16.4754 21.5999H18.8754C19.5381 21.5999 20.0754 21.0626 20.0754 20.3999V12.497L20.4269 12.8484C20.8955 13.3171 21.6553 13.3171 22.1239 12.8484C22.5925 12.3798 22.5925 11.62 22.1239 11.1514L13.7239 2.75137Z" fill="black"/>
</svg>
