<svg width="24" height="24" viewBox="0 0 24 24" fill="none" xmlns="http://www.w3.org/2000/svg">
<path fill-rule="evenodd" clip-rule="evenodd" d="M6.21271 6.77737C7.93782 5.58624 9.99068 4.75 12.0004 4.75C14.0102 4.75 16.0628 5.58649 17.7876 6.77776C19.5172 7.97232 21.0164 9.59106 21.8898 11.2938C22.0367 11.5803 22.0367 11.92 21.8898 12.2066C21.0164 13.9093 19.517 15.528 17.7873 16.7225C16.0623 17.9136 14.0096 18.75 11.9998 18.75C9.99001 18.75 7.93729 17.9136 6.21233 16.7224C4.48262 15.5279 2.98331 13.9091 2.11014 12.206C1.96329 11.9196 1.96329 11.58 2.11014 11.2936C2.98334 9.59048 4.48285 7.97177 6.21271 6.77737ZM4.14405 11.7498C4.87175 12.9602 6.01196 14.1535 7.34884 15.0767C8.85833 16.1191 10.5196 16.75 11.9998 16.75C13.48 16.75 15.1413 16.1191 16.6508 15.0767C17.9877 14.1536 19.128 12.9604 19.8559 11.7502C19.128 10.5399 17.9878 9.34664 16.6511 8.42341C15.1417 7.38093 13.4806 6.75 12.0004 6.75C10.5202 6.75 8.85872 7.38082 7.34908 8.42317C6.01207 9.34633 4.87175 10.5395 4.14405 11.7498ZM12 10.1786C11.0146 10.1786 10.3 10.9275 10.3 11.75C10.3 12.5725 11.0146 13.3214 12 13.3214C12.9854 13.3214 13.7 12.5725 13.7 11.75C13.7 10.9275 12.9854 10.1786 12 10.1786ZM8.3 11.75C8.3 9.73214 10.0031 8.17857 12 8.17857C13.9969 8.17857 15.7 9.73214 15.7 11.75C15.7 13.7679 13.9969 15.3214 12 15.3214C10.0031 15.3214 8.3 13.7679 8.3 11.75Z" fill="#28282E"/>
</svg>
