<svg width="21" height="22" viewBox="0 0 21 22" fill="none" xmlns="http://www.w3.org/2000/svg">
<g clip-path="url(#clip0_158_4876)">
<path d="M9.14852 15.0743C10.1687 15.0743 11.1247 14.7663 11.9202 14.2402L14.7305 17.0568C14.9165 17.2365 15.1539 17.3263 15.4106 17.3263C15.9431 17.3263 16.3345 16.9092 16.3345 16.3831C16.3345 16.1393 16.2511 15.9019 16.0714 15.7223L13.2804 12.9185C13.8579 12.0972 14.1979 11.1028 14.1979 10.0249C14.1979 7.24673 11.9267 4.97546 9.14852 4.97546C6.37681 4.97546 4.09912 7.24673 4.09912 10.0249C4.09912 12.803 6.37039 15.0743 9.14852 15.0743ZM9.14852 13.7269C7.11465 13.7269 5.44648 12.0587 5.44648 10.0249C5.44648 7.99099 7.11465 6.32282 9.14852 6.32282C11.1824 6.32282 12.8506 7.99099 12.8506 10.0249C12.8506 12.0587 11.1824 13.7269 9.14852 13.7269Z" fill="#3C3C43" fill-opacity="0.6"/>
</g>
<defs>
<clipPath id="clip0_158_4876">
<rect width="20.44" height="20.44" fill="white" transform="translate(0 0.780029)"/>
</clipPath>
</defs>
</svg>
