<svg width="95" height="22" viewBox="0 0 95 22" fill="none" xmlns="http://www.w3.org/2000/svg">
<path d="M0.289062 0.999999H7.04688L11.6953 12.3281H11.9297L16.5781 0.999999H23.3359V21H18.0234V9.4375H17.8672L13.4141 20.8437H10.2109L5.75781 9.35937H5.60156V21H0.289062V0.999999ZM45.2842 11C45.2842 13.2266 44.8512 15.1048 43.9854 16.6348C43.1195 18.1582 41.9508 19.3138 40.4795 20.1016C39.0081 20.8828 37.3675 21.2734 35.5576 21.2734C33.7347 21.2734 32.0876 20.8796 30.6162 20.0918C29.1514 19.2975 27.986 18.1387 27.1201 16.6152C26.2607 15.0853 25.8311 13.2135 25.8311 11C25.8311 8.77344 26.2607 6.89844 27.1201 5.375C27.986 3.84505 29.1514 2.68945 30.6162 1.9082C32.0876 1.12044 33.7347 0.726562 35.5576 0.726562C37.3675 0.726562 39.0081 1.12044 40.4795 1.9082C41.9508 2.68945 43.1195 3.84505 43.9854 5.375C44.8512 6.89844 45.2842 8.77344 45.2842 11ZM39.6982 11C39.6982 9.80208 39.5387 8.79297 39.2197 7.97266C38.9072 7.14583 38.4417 6.52083 37.8232 6.09766C37.2113 5.66797 36.4561 5.45312 35.5576 5.45312C34.6592 5.45312 33.9007 5.66797 33.2822 6.09766C32.6702 6.52083 32.2048 7.14583 31.8857 7.97266C31.5732 8.79297 31.417 9.80208 31.417 11C31.417 12.1979 31.5732 13.2103 31.8857 14.0371C32.2048 14.8574 32.6702 15.4824 33.2822 15.9121C33.9007 16.3353 34.6592 16.5469 35.5576 16.5469C36.4561 16.5469 37.2113 16.3353 37.8232 15.9121C38.4417 15.4824 38.9072 14.8574 39.2197 14.0371C39.5387 13.2103 39.6982 12.1979 39.6982 11ZM55.4917 21H47.7964V0.999999H55.4136C57.4709 0.999999 59.2482 1.40039 60.7456 2.20117C62.2495 2.99544 63.4084 4.14128 64.2222 5.63867C65.0425 7.12956 65.4526 8.91667 65.4526 11C65.4526 13.0833 65.0457 14.8737 64.2319 16.3711C63.4181 17.862 62.2658 19.0078 60.7749 19.8086C59.284 20.6029 57.5229 21 55.4917 21ZM53.2261 16.3906H55.2964C56.286 16.3906 57.1291 16.2311 57.8257 15.9121C58.5288 15.5931 59.0627 15.043 59.4272 14.2617C59.7983 13.4805 59.9839 12.3932 59.9839 11C59.9839 9.60677 59.7951 8.51953 59.4175 7.73828C59.0464 6.95703 58.4995 6.4069 57.7769 6.08789C57.0607 5.76888 56.1818 5.60937 55.1401 5.60937H53.2261V16.3906ZM73.3945 0.999999V21H67.9648V0.999999H73.3945ZM94.6396 8.5H89.1318C89.0928 8.04427 88.9886 7.63086 88.8193 7.25977C88.6566 6.88867 88.4287 6.56966 88.1357 6.30273C87.8493 6.0293 87.501 5.82096 87.0908 5.67773C86.6807 5.52799 86.2152 5.45312 85.6943 5.45312C84.7829 5.45312 84.0114 5.67448 83.3799 6.11719C82.7549 6.55989 82.2796 7.19466 81.9541 8.02148C81.6351 8.84831 81.4756 9.84115 81.4756 11C81.4756 12.224 81.6383 13.2493 81.9639 14.0762C82.2959 14.8965 82.7744 15.515 83.3994 15.9316C84.0244 16.3418 84.7764 16.5469 85.6553 16.5469C86.1566 16.5469 86.6058 16.485 87.0029 16.3613C87.4001 16.2311 87.7451 16.0456 88.0381 15.8047C88.3311 15.5638 88.5687 15.2741 88.751 14.9355C88.9398 14.5905 89.0667 14.2031 89.1318 13.7734L94.6396 13.8125C94.5745 14.6589 94.3369 15.5215 93.9268 16.4004C93.5166 17.2728 92.9339 18.0801 92.1787 18.8223C91.43 19.5579 90.5023 20.1504 89.3955 20.5996C88.2887 21.0488 87.0029 21.2734 85.5381 21.2734C83.7021 21.2734 82.055 20.8796 80.5967 20.0918C79.1449 19.304 77.9958 18.1452 77.1494 16.6152C76.3096 15.0853 75.8896 13.2135 75.8896 11C75.8896 8.77344 76.3193 6.89844 77.1787 5.375C78.0381 3.84505 79.1969 2.68945 80.6553 1.9082C82.1136 1.12044 83.7412 0.726562 85.5381 0.726562C86.8011 0.726562 87.9632 0.899088 89.0244 1.24414C90.0856 1.58919 91.0166 2.09375 91.8174 2.75781C92.6182 3.41536 93.2627 4.22591 93.751 5.18945C94.2393 6.15299 94.5355 7.25651 94.6396 8.5Z" fill="#292929"/>
</svg>
