<svg width="104" height="24" viewBox="0 0 104 24" fill="none" xmlns="http://www.w3.org/2000/svg">
<path d="M0.598633 1.18182H7.97079L13.0418 13.5398H13.2975L18.3685 1.18182H25.7407V23H19.9452V10.3864H19.7748L14.9168 22.8295H11.4225L6.56454 10.3011H6.39409V23H0.598633V1.18182ZM49.6842 12.0909C49.6842 14.5199 49.2119 16.5689 48.2673 18.2379C47.3227 19.8999 46.0479 21.1605 44.4427 22.0199C42.8376 22.8722 41.0479 23.2983 39.0734 23.2983C37.0848 23.2983 35.2879 22.8686 33.6828 22.0092C32.0848 21.1428 30.8135 19.8786 29.8689 18.2166C28.9314 16.5476 28.4626 14.5057 28.4626 12.0909C28.4626 9.66193 28.9314 7.61648 29.8689 5.95455C30.8135 4.28551 32.0848 3.02486 33.6828 2.17258C35.2879 1.31321 37.0848 0.883522 39.0734 0.883522C41.0479 0.883522 42.8376 1.31321 44.4427 2.17258C46.0479 3.02486 47.3227 4.28551 48.2673 5.95455C49.2119 7.61648 49.6842 9.66193 49.6842 12.0909ZM43.5905 12.0909C43.5905 10.7841 43.4165 9.68324 43.0684 8.78835C42.7275 7.88636 42.2197 7.20454 41.545 6.7429C40.8774 6.27415 40.0535 6.03977 39.0734 6.03977C38.0933 6.03977 37.2659 6.27415 36.5912 6.7429C35.9236 7.20454 35.4157 7.88636 35.0677 8.78835C34.7268 9.68324 34.5564 10.7841 34.5564 12.0909C34.5564 13.3977 34.7268 14.5021 35.0677 15.4041C35.4157 16.299 35.9236 16.9808 36.5912 17.4496C37.2659 17.9112 38.0933 18.142 39.0734 18.142C40.0535 18.142 40.8774 17.9112 41.545 17.4496C42.2197 16.9808 42.7275 16.299 43.0684 15.4041C43.4165 14.5021 43.5905 13.3977 43.5905 12.0909ZM60.8197 23H52.4248V1.18182H60.7345C62.9788 1.18182 64.9177 1.61861 66.5512 2.49219C68.1919 3.35866 69.4561 4.60866 70.3438 6.24219C71.2387 7.86861 71.6862 9.81818 71.6862 12.0909C71.6862 14.3636 71.2423 16.3168 70.3545 17.9503C69.4667 19.5767 68.2096 20.8267 66.5832 21.7003C64.9568 22.5668 63.0356 23 60.8197 23ZM58.3481 17.9716H60.6066C61.6862 17.9716 62.6059 17.7976 63.3659 17.4496C64.1329 17.1016 64.7153 16.5014 65.113 15.6491C65.5178 14.7969 65.7203 13.6108 65.7203 12.0909C65.7203 10.571 65.5143 9.38494 65.1024 8.53267C64.6975 7.6804 64.1009 7.08025 63.3126 6.73224C62.5313 6.38423 61.5725 6.21023 60.4362 6.21023H58.3481V17.9716ZM80.3501 1.18182V23H74.4268V1.18182H80.3501ZM103.527 9.36364H97.518C97.4754 8.86648 97.3618 8.41548 97.1771 8.01065C96.9996 7.60582 96.751 7.25781 96.4314 6.96662C96.1189 6.66832 95.7389 6.44105 95.2915 6.2848C94.844 6.12145 94.3362 6.03977 93.768 6.03977C92.7737 6.03977 91.9321 6.28125 91.2432 6.7642C90.5613 7.24716 90.0429 7.93963 89.6878 8.84162C89.3398 9.74361 89.1657 10.8267 89.1657 12.0909C89.1657 13.4261 89.3433 14.5447 89.6984 15.4467C90.0606 16.3416 90.5827 17.0163 91.2645 17.4709C91.9463 17.9183 92.7666 18.142 93.7254 18.142C94.2723 18.142 94.7623 18.0746 95.1956 17.9396C95.6288 17.7976 96.0052 17.5952 96.3248 17.3324C96.6444 17.0696 96.9037 16.7536 97.1025 16.3842C97.3085 16.0078 97.447 15.5852 97.518 15.1165L103.527 15.1591C103.456 16.0824 103.196 17.0234 102.749 17.9822C102.301 18.9339 101.666 19.8146 100.842 20.6243C100.025 21.4268 99.0131 22.0732 97.8057 22.5632C96.5983 23.0533 95.1956 23.2983 93.5976 23.2983C91.5947 23.2983 89.7979 22.8686 88.2069 22.0092C86.6231 21.1499 85.3696 19.8857 84.4463 18.2166C83.5301 16.5476 83.072 14.5057 83.072 12.0909C83.072 9.66193 83.5407 7.61648 84.4782 5.95455C85.4157 4.28551 86.68 3.02486 88.2709 2.17258C89.8618 1.31321 91.6373 0.883522 93.5976 0.883522C94.9754 0.883522 96.2432 1.07173 97.4008 1.44815C98.5585 1.82457 99.5741 2.375 100.448 3.09943C101.321 3.81676 102.024 4.70099 102.557 5.75213C103.09 6.80327 103.413 8.0071 103.527 9.36364Z" fill="#1A1B1E"/>
</svg>
