<svg width="25" height="24" viewBox="0 0 25 24" fill="none" xmlns="http://www.w3.org/2000/svg">
<path fill-rule="evenodd" clip-rule="evenodd" d="M21.7254 11.9999C21.7254 17.3018 17.4273 21.5999 12.1254 21.5999C6.82346 21.5999 2.52539 17.3018 2.52539 11.9999C2.52539 6.69797 6.82346 2.3999 12.1254 2.3999C17.4273 2.3999 21.7254 6.69797 21.7254 11.9999ZM14.5254 8.3999C14.5254 9.72539 13.4509 10.7999 12.1254 10.7999C10.7999 10.7999 9.72539 9.72539 9.72539 8.3999C9.72539 7.07442 10.7999 5.9999 12.1254 5.9999C13.4509 5.9999 14.5254 7.07442 14.5254 8.3999ZM12.1253 13.1999C9.70426 13.1999 7.61812 14.6338 6.66987 16.6988C7.99023 18.2303 9.94457 19.1999 12.1254 19.1999C14.3061 19.1999 16.2604 18.2304 17.5808 16.6989C16.6326 14.6339 14.5464 13.1999 12.1253 13.1999Z" fill="#2F2F2F"/>
</svg>
