<svg width="28" height="28" viewBox="0 0 28 28" fill="none" xmlns="http://www.w3.org/2000/svg">
<path d="M21.0814 9.93069L11.0948 4.93735C4.38643 1.57735 1.63309 4.33069 4.99309 11.039L6.00809 13.069C6.29976 13.664 6.29976 14.3524 6.00809 14.9474L4.99309 16.9657C1.63309 23.674 4.37476 26.4274 11.0948 23.0674L21.0814 18.074C25.5614 15.834 25.5614 12.1707 21.0814 9.93069ZM17.3131 14.8774H11.0131C10.5348 14.8774 10.1381 14.4807 10.1381 14.0024C10.1381 13.524 10.5348 13.1274 11.0131 13.1274H17.3131C17.7914 13.1274 18.1881 13.524 18.1881 14.0024C18.1881 14.4807 17.7914 14.8774 17.3131 14.8774Z" fill="#FF5100"/>
</svg>
