<svg width="18" height="18" viewBox="0 0 18 18" fill="none" xmlns="http://www.w3.org/2000/svg">
<path d="M10.7999 11.3551V11.2097M10.7995 9.10291V8.95753M10.7995 6.86032V6.71494M3.75873 2.59473H9.00069C9.03047 3.65602 9.90015 4.50723 10.9687 4.50723C12.0371 4.50723 12.9068 3.65602 12.9366 2.59473H14.2411C15.82 2.59473 17.0999 3.87467 17.0999 5.45355V12.5462C17.0999 14.1251 15.82 15.4051 14.2411 15.4051H12.9366C12.9068 14.3438 12.0371 13.4926 10.9687 13.4926C9.90015 13.4926 9.03047 14.3438 9.00069 15.4051H3.75874C2.17985 15.4051 0.899912 14.1251 0.899912 12.5462L0.899902 5.45355C0.899902 3.87467 2.17984 2.59473 3.75873 2.59473Z" stroke="#28282E" stroke-width="1.5" stroke-linecap="round" stroke-linejoin="round"/>
</svg>
