<svg width="24" height="25" viewBox="0 0 24 25" fill="none" xmlns="http://www.w3.org/2000/svg">
<path d="M6 21.5V19.5C6 18.4391 6.42143 17.4217 7.17157 16.6716C7.92172 15.9214 8.93913 15.5 10 15.5H13.5M17 21.5L21 17.5M8 7.5C8 8.56087 8.42143 9.57828 9.17157 10.3284C9.92172 11.0786 10.9391 11.5 12 11.5C13.0609 11.5 14.0783 11.0786 14.8284 10.3284C15.5786 9.57828 16 8.56087 16 7.5C16 6.43913 15.5786 5.42172 14.8284 4.67157C14.0783 3.92143 13.0609 3.5 12 3.5C10.9391 3.5 9.92172 3.92143 9.17157 4.67157C8.42143 5.42172 8 6.43913 8 7.5ZM16 19.5C16 20.2956 16.3161 21.0587 16.8787 21.6213C17.4413 22.1839 18.2044 22.5 19 22.5C19.7956 22.5 20.5587 22.1839 21.1213 21.6213C21.6839 21.0587 22 20.2956 22 19.5C22 18.7044 21.6839 17.9413 21.1213 17.3787C20.5587 16.8161 19.7956 16.5 19 16.5C18.2044 16.5 17.4413 16.8161 16.8787 17.3787C16.3161 17.9413 16 18.7044 16 19.5Z" stroke="#28282E" stroke-width="2" stroke-linecap="round" stroke-linejoin="round"/>
</svg>
