<svg width="84" height="84" viewBox="0 0 84 84" fill="none" xmlns="http://www.w3.org/2000/svg">
<path d="M62.8332 5.91687C69.1177 9.54543 74.3455 14.7524 77.9992 21.0223C81.6528 27.2922 83.6056 34.4076 83.6642 41.6641C83.7228 48.9207 81.8852 56.0667 78.3333 62.3948C74.7814 68.7229 69.6384 74.0136 63.4134 77.7432C57.1884 81.4728 50.0973 83.512 42.842 83.6588C35.5867 83.8056 28.4189 82.0551 22.0481 78.5804C15.6772 75.1057 10.3244 70.0274 6.51936 63.8482C2.71434 57.669 0.589124 50.6032 0.354086 43.3502L0.333252 42.0002L0.354086 40.6502C0.587432 33.4543 2.68137 26.4417 6.43175 20.296C10.1821 14.1503 15.461 9.08125 21.7536 5.58305C28.0463 2.08484 35.138 0.276856 42.3374 0.33536C49.5369 0.393865 56.5983 2.31686 62.8332 5.91687ZM42.0416 54.5002L41.5124 54.5294C40.4997 54.6498 39.5664 55.1375 38.8891 55.9001C38.2119 56.6626 37.8379 57.647 37.8379 58.6669C37.8379 59.6867 38.2119 60.6711 38.8891 61.4337C39.5664 62.1962 40.4997 62.6839 41.5124 62.8044L41.9999 62.8335L42.5291 62.8044C43.5418 62.6839 44.4752 62.1962 45.1524 61.4337C45.8296 60.6711 46.2036 59.6867 46.2036 58.6669C46.2036 57.647 45.8296 56.6626 45.1524 55.9001C44.4752 55.1375 43.5418 54.6498 42.5291 54.5294L42.0416 54.5002ZM41.9999 21.1669C40.9794 21.167 39.9943 21.5417 39.2317 22.2198C38.4691 22.898 37.9818 23.8325 37.8624 24.846L37.8333 25.3335V42.0002L37.8624 42.4877C37.9829 43.5004 38.4706 44.4338 39.2331 45.111C39.9956 45.7882 40.9801 46.1622 41.9999 46.1622C43.0198 46.1622 44.0042 45.7882 44.7667 45.111C45.5293 44.4338 46.017 43.5004 46.1374 42.4877L46.1666 42.0002V25.3335L46.1374 24.846C46.018 23.8325 45.5308 22.898 44.7681 22.2198C44.0055 21.5417 43.0205 21.167 41.9999 21.1669Z" fill="#FF5100"/>
</svg>
