<svg width="18" height="18" viewBox="0 0 18 18" fill="none" xmlns="http://www.w3.org/2000/svg">
<circle cx="9" cy="9" r="9" fill="black"/>
<path d="M9.98122 9.23484L13.3141 5.9069C13.4137 5.80727 13.4697 5.67215 13.4697 5.53125C13.4697 5.39035 13.4137 5.25523 13.3141 5.1556C13.2145 5.05597 13.0794 5 12.9385 5C12.7976 5 12.6625 5.05597 12.5629 5.1556L9.23529 8.48883L5.90771 5.1556C5.80809 5.05597 5.67298 5 5.5321 5C5.39121 5 5.2561 5.05597 5.15649 5.1556C5.05687 5.25523 5.0009 5.39035 5.0009 5.53125C5.0009 5.67215 5.05687 5.80727 5.15649 5.9069L8.48936 9.23484L5.15649 12.5628C5.1069 12.612 5.06754 12.6705 5.04069 12.735C5.01383 12.7994 5 12.8686 5 12.9384C5 13.0083 5.01383 13.0774 5.04069 13.1419C5.06754 13.2064 5.1069 13.2649 5.15649 13.3141C5.20567 13.3637 5.26418 13.403 5.32864 13.4299C5.39311 13.4568 5.46226 13.4706 5.5321 13.4706C5.60193 13.4706 5.67108 13.4568 5.73555 13.4299C5.80001 13.403 5.85853 13.3637 5.90771 13.3141L9.23529 9.98085L12.5629 13.3141C12.6121 13.3637 12.6706 13.403 12.735 13.4299C12.7995 13.4568 12.8687 13.4706 12.9385 13.4706C13.0083 13.4706 13.0775 13.4568 13.1419 13.4299C13.2064 13.403 13.2649 13.3637 13.3141 13.3141C13.3637 13.2649 13.403 13.2064 13.4299 13.1419C13.4568 13.0774 13.4706 13.0083 13.4706 12.9384C13.4706 12.8686 13.4568 12.7994 13.4299 12.735C13.403 12.6705 13.3637 12.612 13.3141 12.5628L9.98122 9.23484Z" fill="white"/>
</svg>
